<svg xmlns="http://www.w3.org/2000/svg" width="51.97" height="38.977" viewBox="0 0 51.97 38.977">
  <path id="image-icon" d="M47.1,102.977H4.872A4.872,4.872,0,0,1,0,98.105V68.872A4.872,4.872,0,0,1,4.872,64H47.1a4.872,4.872,0,0,1,4.872,4.872V98.105A4.872,4.872,0,0,1,47.1,102.977ZM11.368,69.684a5.684,5.684,0,1,0,5.684,5.684A5.684,5.684,0,0,0,11.368,69.684ZM6.5,96.481H45.474V85.113L36.59,76.23a1.218,1.218,0,0,0-1.723,0L21.113,89.985,15.478,84.35a1.218,1.218,0,0,0-1.723,0L6.5,91.609Z" transform="translate(0 -64)" fill="#007880"/>
</svg>
