<svg xmlns="http://www.w3.org/2000/svg" width="314.5" height="244.611" viewBox="0 0 314.5 244.611">
  <g id="image-uploader-thumb" transform="translate(0 -32)">
    <path id="Path_3699" data-name="Path 3699" d="M231.774,118.878a6.552,6.552,0,0,0-9.282,0l-73.978,73.995-21.573-21.578a6.552,6.552,0,0,0-9.282,0l-30.3,30.314v26.208H279.556V166.664ZM34.944,236.553V122.984H26.208A26.208,26.208,0,0,0,0,149.192V288.97a26.208,26.208,0,0,0,26.208,26.208H235.875a26.208,26.208,0,0,0,26.208-26.208v-8.736H78.625a43.73,43.73,0,0,1-43.681-43.681Z" transform="translate(0 -38.567)" fill="rgba(0,0,0,0.16)" opacity="0.4"/>
    <path id="Path_3700" data-name="Path 3700" d="M331.875,32H122.208A26.208,26.208,0,0,0,96,58.208V197.986a26.208,26.208,0,0,0,26.208,26.208H331.875a26.208,26.208,0,0,0,26.208-26.208V58.208A26.208,26.208,0,0,0,331.875,32ZM157.153,58.208a26.208,26.208,0,1,1-26.208,26.208,26.208,26.208,0,0,1,26.208-26.208ZM323.139,189.25H130.944V163.042l30.314-30.314a6.552,6.552,0,0,1,9.282,0L192.1,154.306l73.995-73.995a6.552,6.552,0,0,1,9.282,0L323.139,128.1Z" transform="translate(-43.583)" fill="rgba(0,0,0,0.16)"/>
  </g>
</svg>
