<svg xmlns="http://www.w3.org/2000/svg" width="46.967" height="46.765" viewBox="0 0 46.967 46.765">
  <g id="text-icon" transform="translate(0 -2.1)">
    <path id="Path_3692" data-name="Path 3692" d="M37.023,46.7v-1.7a2.161,2.161,0,0,0-1.984-2.152c-.86-.072-1.72-.149-2.58-.24-1.657-.173-3.483-.355-3.483-2.416l-.01-31.873c6.533-.1,10.112,3.685,12.01,9.281a2.206,2.206,0,0,0,2.09,1.5h1.739a2.159,2.159,0,0,0,2.162-2.162V4.262A2.159,2.159,0,0,0,44.805,2.1H2.162A2.159,2.159,0,0,0,0,4.262V16.949A2.159,2.159,0,0,0,2.162,19.11H3.9a2.206,2.206,0,0,0,2.09-1.5C7.883,12.01,11.467,8.23,18,8.326L17.985,40.2c0,2.061-1.825,2.243-3.483,2.416-.86.091-1.72.168-2.58.24a2.161,2.161,0,0,0-1.984,2.152v1.7A2.159,2.159,0,0,0,12.1,48.865h22.76A2.165,2.165,0,0,0,37.023,46.7Z" transform="translate(0 0)" fill="#007880"/>
  </g>
</svg>
