<svg id="grid-layout-icon" xmlns="http://www.w3.org/2000/svg" width="49.649" height="49.649" viewBox="0 0 49.649 49.649">
  <path id="Path_3689" data-name="Path 3689" d="M14.481,32.065v-30A2.069,2.069,0,0,0,12.412,0H2.069A2.069,2.069,0,0,0,0,2.069V47.581a2.069,2.069,0,0,0,2.069,2.069H12.412a2.069,2.069,0,0,0,2.069-2.069V32.065Z" fill="#007880"/>
  <path id="Path_3690" data-name="Path 3690" d="M10.569,31.481H38.5a2.069,2.069,0,0,0,2.069-2.069V19.069A2.069,2.069,0,0,0,38.5,17H10.569A2.069,2.069,0,0,0,8.5,19.069V29.412A2.069,2.069,0,0,0,10.569,31.481Z" transform="translate(9.084 18.168)" fill="#007880"/>
  <path id="Path_3691" data-name="Path 3691" d="M38.5,0H10.569A2.069,2.069,0,0,0,8.5,2.069V30a2.069,2.069,0,0,0,2.069,2.069H38.5A2.069,2.069,0,0,0,40.565,30V2.069A2.069,2.069,0,0,0,38.5,0Z" transform="translate(9.084)" fill="#007880"/>
</svg>
